<?xml version="1.0" encoding="iso-8859-1"?>
<!-- Generator: Adobe Illustrator 18.1.1, SVG Export Plug-In . SVG Version: 6.00 Build 0)  -->
<svg version="1.1" id="Capa_1" xmlns="http://www.w3.org/2000/svg" xmlns:xlink="http://www.w3.org/1999/xlink" x="0px" y="0px"
	 viewBox="0 0 456.556 456.556" style="enable-background:new 0 0 456.556 456.556;" xml:space="preserve">
<g>
	<path d="M228.278,366.581c-87.772,0-160.046-70.7-161.123-157.599l-0.014-2.147c0-7.413,6.015-13.428,13.428-13.428
		c7.413,0,13.428,6.015,13.428,13.428l0.014,1.825c0.888,72.267,61.126,131.064,134.267,131.064
		c77.904,0,133.12-48.145,134.26-117.076c0.014-1.413,0.021-28.437,0.021-29.241c0-7.413,6.015-13.428,13.428-13.428
		c7.413,0,13.428,6.015,13.428,13.428c0,0.825-0.007,28.835-0.021,29.689C388.01,306.238,320.254,366.581,228.278,366.581z"/>
	<path d="M228.278,445.702c-7.413,0-13.428-6.015-13.428-13.428v-25.548c0-7.413,6.015-13.428,13.428-13.428
		s13.428,6.015,13.428,13.428v25.548C241.706,439.687,235.691,445.702,228.278,445.702z"/>
	<path d="M262.464,456.556h-68.372c-7.413,0-13.428-6.015-13.428-13.428c0-7.413,6.015-13.428,13.428-13.428h68.372
		c7.413,0,13.428,6.015,13.428,13.428C275.892,450.541,269.877,456.556,262.464,456.556z"/>
	<path d="M228.278,299.699c-51.09,0-92.654-41.194-92.654-91.829V91.829C135.624,41.194,177.188,0,228.278,0
		c51.097,0,92.661,41.194,92.661,91.829V207.87C320.939,258.505,279.375,299.699,228.278,299.699z M228.278,26.856
		c-36.284,0-65.798,29.143-65.798,64.973V207.87c0,35.829,29.514,64.973,65.798,64.973s65.805-29.143,65.805-64.973V91.829
		C294.083,55.999,264.562,26.856,228.278,26.856z"/>
</g>
<g>
</g>
<g>
</g>
<g>
</g>
<g>
</g>
<g>
</g>
<g>
</g>
<g>
</g>
<g>
</g>
<g>
</g>
<g>
</g>
<g>
</g>
<g>
</g>
<g>
</g>
<g>
</g>
<g>
</g>
</svg>
